<svg id="Componente_2_16" data-name="Componente 2 – 16" xmlns="http://www.w3.org/2000/svg" width="41.257" height="44.056" viewBox="0 0 41.257 44.056">
  <path id="Trazado_1" data-name="Trazado 1" d="M207.819,216.708a6.866,6.866,0,1,1-6.861-6.645,6.756,6.756,0,0,1,6.861,6.645" transform="translate(-180.347 -210.063)" fill="#46a52c"/>
  <path id="Trazado_2" data-name="Trazado 2" d="M207.819,301.535a6.866,6.866,0,1,1-6.861-6.645,6.755,6.755,0,0,1,6.861,6.645" transform="translate(-180.347 -279.509)" fill="#46a52c"/>
  <path id="Trazado_3" data-name="Trazado 3" d="M207.819,386.363a6.866,6.866,0,1,1-6.861-6.645,6.757,6.757,0,0,1,6.861,6.645" transform="translate(-180.347 -348.955)" fill="#46a52c"/>
  <path id="Trazado_4" data-name="Trazado 4" d="M130.969,253.444a6.54,6.54,0,0,1,2.511,9.081,6.988,6.988,0,0,1-9.378,2.432,6.53,6.53,0,0,1-2.511-9.077,6.989,6.989,0,0,1,9.378-2.435" transform="translate(-120.67 -244.848)" fill="#46a52c"/>
  <path id="Trazado_5" data-name="Trazado 5" d="M277.893,338.273a6.536,6.536,0,0,1,2.51,9.081,6.988,6.988,0,0,1-9.376,2.431,6.534,6.534,0,0,1-2.512-9.08,6.99,6.99,0,0,1,9.378-2.432" transform="translate(-240.085 -314.295)" fill="#46a52c"/>
  <path id="Trazado_6" data-name="Trazado 6" d="M124.2,338.282a6.988,6.988,0,0,1,9.373,2.433,6.534,6.534,0,0,1-2.509,9.081,6.992,6.992,0,0,1-9.378-2.433,6.538,6.538,0,0,1,2.514-9.081" transform="translate(-120.751 -314.304)" fill="#46a52c"/>
  <path id="Trazado_7" data-name="Trazado 7" d="M271.126,253.447a6.987,6.987,0,0,1,9.378,2.433,6.536,6.536,0,0,1-2.516,9.079,6.983,6.983,0,0,1-9.374-2.434,6.534,6.534,0,0,1,2.511-9.079" transform="translate(-240.166 -244.85)" fill="#46a52c"/>
</svg>
