<svg xmlns="http://www.w3.org/2000/svg" width="120.426" height="44.51" viewBox="0 0 120.426 44.51">
  <g id="Grupo_49" data-name="Grupo 49" transform="translate(0 0)">
    <g id="Grupo_6" data-name="Grupo 6">
      <g id="Grupo_5" data-name="Grupo 5" transform="translate(0 0)">
        <g id="Grupo_3" data-name="Grupo 3" transform="translate(0.017)">
          <g id="Grupo_1" data-name="Grupo 1">
            <path id="Trazado_1" data-name="Trazado 1" d="M203.67,214.85a4.788,4.788,0,1,1-4.787-4.787,4.787,4.787,0,0,1,4.787,4.787" transform="translate(-184.503 -210.063)" fill="#46a52c"/>
            <path id="Trazado_2" data-name="Trazado 2" d="M203.67,299.677a4.788,4.788,0,1,1-4.787-4.787,4.786,4.786,0,0,1,4.787,4.787" transform="translate(-184.503 -283.809)" fill="#46a52c"/>
            <path id="Trazado_3" data-name="Trazado 3" d="M203.67,384.505a4.788,4.788,0,1,1-4.787-4.787,4.788,4.788,0,0,1,4.787,4.787" transform="translate(-184.503 -357.556)" fill="#46a52c"/>
            <path id="Trazado_4" data-name="Trazado 4" d="M127.855,253.195a4.789,4.789,0,1,1-6.543,1.754,4.794,4.794,0,0,1,6.543-1.754" transform="translate(-120.67 -247.002)" fill="#46a52c"/>
            <path id="Trazado_5" data-name="Trazado 5" d="M274.78,338.024a4.789,4.789,0,1,1-6.543,1.752,4.791,4.791,0,0,1,6.543-1.752" transform="translate(-248.402 -320.749)" fill="#46a52c"/>
            <path id="Trazado_6" data-name="Trazado 6" d="M123.164,338.033a4.789,4.789,0,1,1-1.754,6.542,4.789,4.789,0,0,1,1.754-6.542" transform="translate(-120.756 -320.759)" fill="#46a52c"/>
            <path id="Trazado_7" data-name="Trazado 7" d="M270.089,253.2a4.788,4.788,0,1,1-1.752,6.541,4.789,4.789,0,0,1,1.752-6.541" transform="translate(-248.488 -247.004)" fill="#46a52c"/>
          </g>
          <g id="Grupo_2" data-name="Grupo 2" transform="translate(32.51)">
            <path id="Trazado_8" data-name="Trazado 8" d="M372.565,233.417s3.33,3.243,7.654,3.243c2.335,0,4.454-1.212,4.454-3.718,0-5.492-14.486-4.541-14.486-13.967,0-5.1,4.41-8.907,10.292-8.907,6.053,0,9.166,3.285,9.166,3.285l-2.421,4.54a11.209,11.209,0,0,0-6.788-2.68c-2.6,0-4.628,1.512-4.628,3.675,0,5.448,14.443,4.107,14.443,13.923,0,4.885-3.719,8.994-10.119,8.994a14.862,14.862,0,0,1-10.594-4.195Z" transform="translate(-369.537 -210.066)" fill="#004f89"/>
            <path id="Trazado_9" data-name="Trazado 9" d="M558.166,210.067a15.51,15.51,0,0,1,15.869,15.653,15.871,15.871,0,1,1-31.738,0,15.51,15.51,0,0,1,15.869-15.653m0,26.635c5.621,0,10.118-4.669,10.118-10.983a10.127,10.127,0,1,0-20.237,0c0,6.313,4.5,10.983,10.119,10.983" transform="translate(-519.729 -210.066)" fill="#004f89"/>
            <path id="Trazado_10" data-name="Trazado 10" d="M815.6,210.063c7.482,0,11.33,4.2,11.33,4.2l-2.683,4.151a13.523,13.523,0,0,0-8.386-3.243c-6.488,0-10.292,4.842-10.292,10.55,0,5.837,3.934,10.982,10.334,10.982a13.225,13.225,0,0,0,8.907-3.891l2.942,4.022a16.526,16.526,0,0,1-12.066,4.973c-9.382,0-15.869-6.963-15.869-16a15.431,15.431,0,0,1,15.783-15.74" transform="translate(-743.613 -210.063)" fill="#004f89"/>
          </g>
        </g>
        <g id="Grupo_4" data-name="Grupo 4" transform="translate(0 37.184)">
          <path id="Trazado_11" data-name="Trazado 11" d="M121.7,494.71h1.08l-.979,5.015h2.57l-.193.929h-3.633Z" transform="translate(-120.543 -494.71)" fill="#40516f"/>
          <path id="Trazado_12" data-name="Trazado 12" d="M154.371,496.44h1.063l-.829,4.27h-1.055Zm1.013-1.666h1.139l-1.105,1.138h-.9Z" transform="translate(-149.239 -494.766)" fill="#40516f"/>
          <path id="Trazado_13" data-name="Trazado 13" d="M173.607,496.284a1.307,1.307,0,0,1,1.181.586h.016a2.062,2.062,0,0,1,.033-.26l.369-1.9h1.063l-1.155,5.944h-1l.067-.318c.033-.176.075-.318.075-.318h-.017a1.678,1.678,0,0,1-1.373.737,1.577,1.577,0,0,1-1.624-1.783A2.516,2.516,0,0,1,173.607,496.284Zm-.435,3.575a1.617,1.617,0,0,0,1.356-1.708c0-.519-.251-.954-.837-.954a1.565,1.565,0,0,0-1.373,1.7A.846.846,0,0,0,173.172,499.859Z" transform="translate(-164.616 -494.71)" fill="#40516f"/>
          <path id="Trazado_14" data-name="Trazado 14" d="M213,506.759a1.523,1.523,0,0,1,1.708,1.616,3.133,3.133,0,0,1-.151.821h-2.939a1.069,1.069,0,0,0-.008.159.952.952,0,0,0,1.055.971,2.574,2.574,0,0,0,1.323-.469l.285.812a2.988,2.988,0,0,1-1.666.561,1.85,1.85,0,0,1-2.076-1.834A2.525,2.525,0,0,1,213,506.759Zm.645,1.708a1.194,1.194,0,0,0,.017-.184.644.644,0,0,0-.678-.7,1.3,1.3,0,0,0-1.2.888Z" transform="translate(-198.772 -505.185)" fill="#40516f"/>
          <path id="Trazado_15" data-name="Trazado 15" d="M246.157,507.138h1.022l-.142.737c-.034.159-.084.31-.084.31h.008a1.838,1.838,0,0,1,1.524-1.105,2.03,2.03,0,0,1,.251.016l-.209,1.047a1.693,1.693,0,0,0-.251-.017,1.987,1.987,0,0,0-1.591,1.766l-.293,1.516h-1.063Z" transform="translate(-229.027 -505.463)" fill="#40516f"/>
          <path id="Trazado_16" data-name="Trazado 16" d="M273.693,506.759a1.523,1.523,0,0,1,1.708,1.616,3.13,3.13,0,0,1-.151.821h-2.939a1.048,1.048,0,0,0-.009.159.951.951,0,0,0,1.055.971,2.574,2.574,0,0,0,1.323-.469l.285.812a2.989,2.989,0,0,1-1.666.561,1.85,1.85,0,0,1-2.076-1.834A2.524,2.524,0,0,1,273.693,506.759Zm.645,1.708a1.178,1.178,0,0,0,.017-.184.644.644,0,0,0-.678-.7,1.3,1.3,0,0,0-1.2.888Z" transform="translate(-251.539 -505.185)" fill="#40516f"/>
          <path id="Trazado_17" data-name="Trazado 17" d="M304.782,509.923a1.7,1.7,0,0,0,1.138.427c.327,0,.695-.151.695-.46,0-.544-1.792-.536-1.792-1.783a1.539,1.539,0,0,1,1.691-1.348,2.236,2.236,0,0,1,1.482.485l-.486.728a1.456,1.456,0,0,0-1-.335c-.31,0-.695.134-.695.46,0,.519,1.8.519,1.8,1.792,0,.8-.728,1.34-1.7,1.34a2.541,2.541,0,0,1-1.691-.62Z" transform="translate(-280.235 -505.185)" fill="#40516f"/>
          <path id="Trazado_18" data-name="Trazado 18" d="M353.679,506.759a1.523,1.523,0,0,1,1.708,1.616,3.128,3.128,0,0,1-.151.821H352.3a1.067,1.067,0,0,0-.008.159.952.952,0,0,0,1.055.971,2.574,2.574,0,0,0,1.323-.469l.285.812a2.989,2.989,0,0,1-1.666.561,1.85,1.85,0,0,1-2.076-1.834A2.525,2.525,0,0,1,353.679,506.759Zm.645,1.708a1.185,1.185,0,0,0,.017-.184.644.644,0,0,0-.678-.7,1.3,1.3,0,0,0-1.2.888Z" transform="translate(-321.077 -505.185)" fill="#40516f"/>
          <path id="Trazado_19" data-name="Trazado 19" d="M386.841,506.859h1.03l-.075.385c-.042.209-.109.419-.109.419h.017a2.016,2.016,0,0,1,1.624-.9c.753,0,1.289.343,1.289,1.164a3.5,3.5,0,0,1-.075.553l-.511,2.654h-1.063l.485-2.487a2.548,2.548,0,0,0,.05-.393.469.469,0,0,0-.536-.519,1.727,1.727,0,0,0-1.524,1.473l-.369,1.926h-1.063Z" transform="translate(-351.333 -505.185)" fill="#40516f"/>
          <path id="Trazado_20" data-name="Trazado 20" d="M436.837,500.654l3.19-5.944h1.222l.913,5.944h-1.08l-.209-1.524h-2.085l-.8,1.524Zm3.943-2.4-.226-1.591c-.042-.335-.067-.921-.067-.921h-.017s-.226.595-.4.921l-.846,1.591Z" transform="translate(-395.519 -494.71)" fill="#40516f"/>
          <path id="Trazado_21" data-name="Trazado 21" d="M480.715,509.923a1.7,1.7,0,0,0,1.138.427c.327,0,.7-.151.7-.46,0-.544-1.792-.536-1.792-1.783a1.539,1.539,0,0,1,1.691-1.348,2.237,2.237,0,0,1,1.482.485l-.485.728a1.457,1.457,0,0,0-1-.335c-.31,0-.695.134-.695.46,0,.519,1.8.519,1.8,1.792,0,.8-.728,1.34-1.7,1.34a2.541,2.541,0,0,1-1.691-.62Z" transform="translate(-433.184 -505.185)" fill="#40516f"/>
          <path id="Trazado_22" data-name="Trazado 22" d="M513.91,506.759a1.523,1.523,0,0,1,1.708,1.616,3.132,3.132,0,0,1-.151.821h-2.939a1.067,1.067,0,0,0-.008.159.952.952,0,0,0,1.055.971,2.574,2.574,0,0,0,1.323-.469l.285.812a2.989,2.989,0,0,1-1.666.561,1.849,1.849,0,0,1-2.076-1.834A2.525,2.525,0,0,1,513.91,506.759Zm.645,1.708a1.176,1.176,0,0,0,.017-.184.644.644,0,0,0-.678-.7,1.3,1.3,0,0,0-1.2.888Z" transform="translate(-460.376 -505.185)" fill="#40516f"/>
          <path id="Trazado_23" data-name="Trazado 23" d="M545,509.923a1.705,1.705,0,0,0,1.139.427c.326,0,.695-.151.695-.46,0-.544-1.792-.536-1.792-1.783a1.539,1.539,0,0,1,1.691-1.348,2.237,2.237,0,0,1,1.482.485l-.486.728a1.456,1.456,0,0,0-1-.335c-.31,0-.695.134-.695.46,0,.519,1.8.519,1.8,1.792,0,.8-.728,1.34-1.7,1.34a2.541,2.541,0,0,1-1.691-.62Z" transform="translate(-489.071 -505.185)" fill="#40516f"/>
          <path id="Trazado_24" data-name="Trazado 24" d="M578.233,506.759a1.911,1.911,0,0,1,2.1,1.884,2.66,2.66,0,0,1-2.646,2.587,1.9,1.9,0,0,1-2.093-1.892A2.651,2.651,0,0,1,578.233,506.759Zm-.528,3.566a1.61,1.61,0,0,0,1.549-1.616.989.989,0,0,0-1.03-1.046,1.63,1.63,0,0,0-1.558,1.624A.984.984,0,0,0,577.706,510.325Z" transform="translate(-516.151 -505.185)" fill="#40516f"/>
          <path id="Trazado_25" data-name="Trazado 25" d="M615.839,507.138h1.021l-.142.737c-.034.159-.084.31-.084.31h.008a1.839,1.839,0,0,1,1.524-1.105,2.035,2.035,0,0,1,.251.016l-.209,1.047a1.7,1.7,0,0,0-.251-.017,1.987,1.987,0,0,0-1.591,1.766l-.293,1.516H615.01Z" transform="translate(-550.417 -505.463)" fill="#40516f"/>
          <path id="Trazado_26" data-name="Trazado 26" d="M641.148,496.44h1.063l-.829,4.27h-1.055Zm1.013-1.666H643.3l-1.105,1.138h-.9Z" transform="translate(-572.427 -494.766)" fill="#40516f"/>
          <path id="Trazado_27" data-name="Trazado 27" d="M659.089,508.45h.159a1.483,1.483,0,0,0,.025-.234c0-.36-.2-.578-.686-.578a2.814,2.814,0,0,0-1.256.4l-.251-.82a3.68,3.68,0,0,1,1.691-.461c.779,0,1.566.326,1.566,1.314a2.641,2.641,0,0,1-.042.418l-.511,2.637h-.98l.067-.36a2.119,2.119,0,0,1,.084-.31h-.017a1.76,1.76,0,0,1-1.39.77,1.142,1.142,0,0,1-1.264-1.089C656.284,508.777,657.959,508.45,659.089,508.45Zm-1.18,1.951a1.433,1.433,0,0,0,1.189-1.138l.016-.084h-.176c-.485,0-1.582.075-1.582.779C657.356,510.2,657.531,510.4,657.908,510.4Z" transform="translate(-586.299 -505.185)" fill="#40516f"/>
          <path id="Trazado_28" data-name="Trazado 28" d="M709.676,494.71h3.407l-.176.929h-2.344l-.318,1.683h1.967l-.176.929h-1.976l-.469,2.4h-1.071Z" transform="translate(-631.712 -494.71)" fill="#40516f"/>
          <path id="Trazado_29" data-name="Trazado 29" d="M742.035,496.384H743.1l-.837,4.27h-1.055Zm.326-1.674h1.063l-.184.946h-1.063Z" transform="translate(-660.127 -494.71)" fill="#40516f"/>
          <path id="Trazado_30" data-name="Trazado 30" d="M759.083,506.859h1.03l-.075.385c-.042.209-.109.419-.109.419h.017a2.016,2.016,0,0,1,1.624-.9c.754,0,1.289.343,1.289,1.164a3.49,3.49,0,0,1-.075.553l-.511,2.654H761.21l.485-2.487a2.514,2.514,0,0,0,.05-.393.47.47,0,0,0-.536-.519,1.727,1.727,0,0,0-1.524,1.473l-.368,1.926h-1.064Z" transform="translate(-674.948 -505.185)" fill="#40516f"/>
          <path id="Trazado_31" data-name="Trazado 31" d="M799.325,508.45h.159a1.486,1.486,0,0,0,.025-.234c0-.36-.2-.578-.686-.578a2.813,2.813,0,0,0-1.256.4l-.251-.82a3.683,3.683,0,0,1,1.691-.461c.779,0,1.566.326,1.566,1.314a2.633,2.633,0,0,1-.042.418l-.511,2.637h-.98l.067-.36a2.1,2.1,0,0,1,.084-.31h-.017a1.76,1.76,0,0,1-1.39.77,1.142,1.142,0,0,1-1.264-1.089C796.52,508.777,798.194,508.45,799.325,508.45Zm-1.181,1.951a1.433,1.433,0,0,0,1.189-1.138l.017-.084h-.176c-.485,0-1.582.075-1.582.779C797.591,510.2,797.767,510.4,798.144,510.4Z" transform="translate(-708.215 -505.185)" fill="#40516f"/>
          <path id="Trazado_32" data-name="Trazado 32" d="M832.6,506.859h1.03l-.075.385c-.042.209-.109.419-.109.419h.017a2.016,2.016,0,0,1,1.624-.9c.754,0,1.289.343,1.289,1.164a3.5,3.5,0,0,1-.075.553l-.511,2.654h-1.063l.485-2.487a2.515,2.515,0,0,0,.05-.393.469.469,0,0,0-.536-.519A1.727,1.727,0,0,0,833.2,509.2l-.368,1.926h-1.064Z" transform="translate(-738.858 -505.185)" fill="#40516f"/>
          <path id="Trazado_33" data-name="Trazado 33" d="M874.278,506.759a2.139,2.139,0,0,1,1.658.628l-.561.67a1.568,1.568,0,0,0-1.047-.393,1.637,1.637,0,0,0-1.616,1.607,1.018,1.018,0,0,0,1.1,1.055,2.487,2.487,0,0,0,1.373-.544l.285.82a2.931,2.931,0,0,1-1.783.628,1.857,1.857,0,0,1-2.051-1.892A2.627,2.627,0,0,1,874.278,506.759Z" transform="translate(-773.516 -505.185)" fill="#40516f"/>
          <path id="Trazado_34" data-name="Trazado 34" d="M906.879,496.384h1.063l-.837,4.27H906.05Zm.327-1.674h1.063l-.184.946h-1.064Z" transform="translate(-803.437 -494.71)" fill="#40516f"/>
          <path id="Trazado_35" data-name="Trazado 35" d="M926.211,506.759a1.523,1.523,0,0,1,1.708,1.616,3.13,3.13,0,0,1-.151.821h-2.939a1.06,1.06,0,0,0-.008.159.951.951,0,0,0,1.055.971,2.575,2.575,0,0,0,1.323-.469l.285.812a2.987,2.987,0,0,1-1.666.561,1.85,1.85,0,0,1-2.076-1.834A2.525,2.525,0,0,1,926.211,506.759Zm.645,1.708a1.2,1.2,0,0,0,.016-.184.644.644,0,0,0-.678-.7,1.3,1.3,0,0,0-1.2.888Z" transform="translate(-818.817 -505.185)" fill="#40516f"/>
          <path id="Trazado_36" data-name="Trazado 36" d="M959.371,507.138h1.021l-.142.737c-.034.159-.084.31-.084.31h.008a1.838,1.838,0,0,1,1.524-1.105,2.027,2.027,0,0,1,.251.016l-.209,1.047a1.689,1.689,0,0,0-.251-.017,1.987,1.987,0,0,0-1.591,1.766l-.293,1.516h-1.063Z" transform="translate(-849.072 -505.463)" fill="#40516f"/>
          <path id="Trazado_37" data-name="Trazado 37" d="M985.573,508.45h.159a1.484,1.484,0,0,0,.025-.234c0-.36-.2-.578-.686-.578a2.816,2.816,0,0,0-1.256.4l-.251-.82a3.681,3.681,0,0,1,1.691-.461c.779,0,1.565.326,1.565,1.314a2.6,2.6,0,0,1-.042.418l-.511,2.637h-.979l.067-.36a2.106,2.106,0,0,1,.084-.31h-.016a1.76,1.76,0,0,1-1.39.77,1.142,1.142,0,0,1-1.264-1.089C982.768,508.777,984.443,508.45,985.573,508.45Zm-1.18,1.951a1.432,1.432,0,0,0,1.189-1.138l.017-.084h-.176c-.485,0-1.583.075-1.583.779C983.839,510.2,984.016,510.4,984.392,510.4Z" transform="translate(-870.133 -505.185)" fill="#40516f"/>
        </g>
      </g>
    </g>
    <g id="Grupo_7" data-name="Grupo 7" transform="translate(117.736 41.82)">
      <path id="Trazado_38" data-name="Trazado 38" d="M1027.453,536.662v-1.356h.576a.986.986,0,0,1,.316.036.312.312,0,0,1,.158.13.39.39,0,0,1,.059.214.362.362,0,0,1-.09.252.431.431,0,0,1-.268.125.633.633,0,0,1,.146.114,1.529,1.529,0,0,1,.156.22l.166.264h-.327l-.2-.295a1.939,1.939,0,0,0-.144-.2.211.211,0,0,0-.082-.056.453.453,0,0,0-.138-.015h-.055v.566Zm.274-.782h.2a1.047,1.047,0,0,0,.246-.017.147.147,0,0,0,.077-.057.176.176,0,0,0,.028-.1.162.162,0,0,0-.037-.11.168.168,0,0,0-.1-.053q-.034,0-.2,0h-.214Z" transform="translate(-1026.717 -534.639)" fill="#3f4f6b"/>
      <path id="Trazado_39" data-name="Trazado 39" d="M1023.167,530.2a1.345,1.345,0,1,0,1.345,1.345A1.345,1.345,0,0,0,1023.167,530.2Zm0,2.475a1.13,1.13,0,1,1,1.13-1.13A1.131,1.131,0,0,1,1023.167,532.673Z" transform="translate(-1021.822 -530.198)" fill="#3f4f6b"/>
    </g>
  </g>
</svg>
